<?xml version="1.0" encoding="utf-8"?>
<!-- Generator: Adobe Illustrator 25.2.3, SVG Export Plug-In . SVG Version: 6.00 Build 0)  -->
<svg version="1.1" id="Layer_1" xmlns="http://www.w3.org/2000/svg" xmlns:xlink="http://www.w3.org/1999/xlink" x="0px" y="0px"
	 viewBox="0 0 549.2 173.7" style="enable-background:new 0 0 549.2 173.7;" xml:space="preserve">
<style type="text/css">
	.st0{fill:#FFFFFF;}
</style>
<path d="M268.1,66.4c-13.9,0-21.8,12.2-21.8,12.2H246l1.2-11.1H229c-0.9,7.5-2.5,18.8-4.2,27.3l-14.3,75.4h20.6l5.7-30.5h0.4
	c0,0,4.2,2.7,12.1,2.7c24.2,0,40-24.8,40-49.9C289.4,78.8,283.2,66.4,268.1,66.4z M248.4,127.1c-5.4,0-8.5-3-8.5-3l3.4-19.3
	c2.4-12.8,9.1-21.4,16.3-21.4c6.3,0,8.2,5.8,8.2,11.4C267.8,108.1,259.9,127.1,248.4,127.1z"/>
<path d="M124,66.4L124,66.4c-9.1,0-16.3,4.3-21.8,10.9l-0.3-0.1l7.9-41.4H89.2l-20,105.3h20.6l6.9-36c2.7-13.6,9.7-22,16.3-22
	c4.6,0,6.4,3.1,6.4,7.6c0,2.8-0.3,6.3-0.9,9.1l-7.8,41.2h20.6l8.1-42.6c0.9-4.5,1.5-9.9,1.5-13.4C140.9,73.5,134.7,66.4,124,66.4z"
	/>
<path d="M187.5,66.4c-24.8,0-41.2,22.4-41.2,47.4c0,16,9.9,28.8,28.4,28.8c24.3,0,40.8-21.8,40.8-47.4
	C215.4,80.5,206.7,66.4,187.5,66.4z M177.3,126.8c-7,0-10-6-10-13.4c0-11.8,6.1-31.1,17.3-31.1c7.3,0,9.7,6.3,9.7,12.4
	C194.3,107.4,188.2,126.8,177.3,126.8z"/>
<path d="M50.2,97.2c-5.2-2.8-7.9-5.2-7.9-8.5c0-4.2,3.7-6.9,9.6-6.9c6.8,0,12.8,2.8,12.8,2.8L69.5,70c0,0-4.4-3.4-17.3-3.4
	c-18,0-30.5,10.3-30.5,24.8c0,8.2,5.8,14.5,13.6,19c6.3,3.6,8.5,6.1,8.5,9.9c0,3.9-3.1,7-9,7c-8.7,0-16.9-4.5-16.9-4.5l-5.1,14.6
	c0,0,7.6,5.1,20.3,5.1c18.5,0,31.8-9.1,31.8-25.5C65,108.1,58.3,101.8,50.2,97.2z"/>
<path d="M346.9,66.4c-13.9,0-21.8,12.2-21.8,12.2h-0.3l1.2-11.1h-18.2c-0.9,7.5-2.5,18.8-4.2,27.3l-14.3,75.4h20.6l5.7-30.5h0.4
	c0,0,4.2,2.7,12.1,2.7c24.2,0,40-24.8,40-49.9C368.2,78.8,362,66.4,346.9,66.4z M327.2,127.1c-5.4,0-8.5-3-8.5-3l3.4-19.3
	c2.4-12.8,9.1-21.4,16.3-21.4c6.3,0,8.2,5.8,8.2,11.4C346.6,108.1,338.7,127.1,327.2,127.1z"/>
<polygon points="368.1,140.5 388.7,140.5 402.7,67.5 381.9,67.5 "/>
<path d="M396.9,36.3c-6.6,0-11.8,5.2-11.8,12c0,6.1,3.9,10.3,9.7,10.3h0.3c6.4,0,12-4.3,12.1-12C407.2,40.6,403.2,36.3,396.9,36.3z"
	/>
<path d="M476.4,94.1c-0.1-14.7-8.8-28.8-28-28.8c-24.8,0-41.2,22.4-41.2,47.4"/>
<path d="M407.2,112.7c0,16,9.9,28.8,28.4,28.8c24.3,0,40.8-21.8,40.8-47.4"/>
<path class="st0" d="M428.7,97.1c-2.7,0,0.3-6.3,5.8-10c3.6-2.4,9.7-3.4,11.4-3.3c1.1,0.1,7,1.2,10.1,4.5c3.5,3.8,2.6,9.3,0.6,9.3"
	/>
<path class="st0" d="M477.5,110.5c0,0,6.6,0.3,15.6,2c10.5,2-9.5,5.2-11.3,5.3c-0.1,0-3.3-0.6-3.5-0.8l-19.6-0.3l-6.7,5.8
	c-2.5,2.7-11.6,3.8-13.4,3.5c-3-0.5-5.5-0.9-8.5-2.7c-4.2-2.6-7.1-9.9-6.3-13.8"/>
<path d="M516.5,96.9c-5.2-2.8-7.9-5.2-7.9-8.5c0-4.2,3.7-6.9,9.6-6.9c6.8,0,12.8,2.8,12.8,2.8l4.8-14.6c0,0-4.4-3.4-17.3-3.4
	c-18,0-30.5,10.3-30.5,24.8c0,8.2,5.8,14.5,13.6,19c6.3,3.6,8.5,6.1,8.5,9.9c0,3.9-3.1,7-9,7c-8.7,0-16.9-4.5-16.9-4.5l-5.1,14.6
	c0,0,7.6,5.1,20.3,5.1c18.5,0,31.8-9.1,31.8-25.5C531.3,107.8,524.6,101.5,516.5,96.9z"/>
</svg>
