<?xml version="1.0" encoding="utf-8"?>
<!-- Generator: Adobe Illustrator 25.2.3, SVG Export Plug-In . SVG Version: 6.00 Build 0)  -->
<svg version="1.1" id="Layer_1" xmlns="http://www.w3.org/2000/svg" xmlns:xlink="http://www.w3.org/1999/xlink" x="0px" y="0px"
	 viewBox="0 0 179.9 173.7" style="enable-background:new 0 0 179.9 173.7;" xml:space="preserve">
<style type="text/css">
	.st0{fill:#FFCD05;}
	.st1{fill:#EAB40F;}
	.st2{fill:#FFFFFF;stroke:#007976;stroke-miterlimit:10;}
	.st3{fill:#FEDA12;}
</style>
<path class="st0" d="M51.4,39.8c-9.4,2.9-21.7,6.7-21.8,6.8c-4.7,1.5-4.9,1.6-5.5,6.1c-0.5,3.3-12.9,99.4-12.9,99.4l104.1,18
	l45.1-11.2c0,0-18.4-124.5-18.5-125.3c-0.1-0.9-0.9-1.3-1.5-1.4c-0.6-0.1-12.6-0.2-12.6-0.2s-10.1-9.8-11.1-10.8s-2.9-0.7-3.7-0.5
	c0,0-1.9,0.6-5.1,1.6 M107.9,22.3c-2.4,0.7-10.3,3.2-13.3,4.1 M94.6,26.4c-5.5,1.7-16.8,5.2-22.8,7.1 M71.8,33.5
	c-5,1.5-15.9,4.9-20.4,6.3"/>
<path class="st1" d="M140.4,32.2c-0.6-0.1-12.6-0.2-12.6-0.2s-10.1-9.8-11.1-10.8c-0.4-0.4-0.9-0.6-1.4-0.6v149.5l45.1-11.2
	c0,0-18.4-124.4-18.5-125.3C141.7,32.7,141,32.3,140.4,32.2z"/>
<path class="st2" d="M90.3,55.4L85.1,75c0,0-5.8-2.7-12.8-2.2c-10.2,0.6-10.3,7-10.2,8.7c0.6,8.8,23.6,10.7,24.9,31.2
	c1,16.2-8.6,27.2-22.4,28.1c-16.6,1-25.7-8.7-25.7-8.7l3.5-14.9c0,0,9.2,6.9,16.5,6.5c4.8-0.3,6.5-4.2,6.3-7
	c-0.7-11.4-19.5-10.8-20.7-29.5c-1-15.8,9.4-31.8,32.3-33.3C85.8,53.1,90.3,55.4,90.3,55.4z"/>
<path class="st3" d="M41.5,42.8L41.5,42.8l0.6,0.7"/>
<path class="st3" d="M26.3,47.8l0.1-0.5"/>
<path class="st0" d="M24.6,50.1c0.7-6.5,1.2-7.1,1.4-7.1l0,0c1.5-0.6,6.1,0.2,7,2.6"/>
<path class="st0" d="M34.1,45.7c-0.5-2.6,1-4.5,2.9-5c1.6-0.4,4.2-0.1,5.1,2.3"/>
<path class="st0" d="M42.5,43.2c-0.5-2.6,1-4.5,2.9-5c1.6-0.4,4.2-0.1,5.1,2.3"/>
<path class="st0" d="M50.9,40.6c-0.5-2.6,1-4.5,2.9-5c1.6-0.4,4.2-0.1,5.1,2.3"/>
<path class="st0" d="M59.3,37.9c-0.5-2.6,1-4.5,2.9-5c1.6-0.4,4.2-0.1,5.1,2.3"/>
<path class="st0" d="M67.9,35.1c-0.5-2.6,1-4.5,2.9-5c1.6-0.4,4.2-0.1,5.1,2.3"/>
<path class="st0" d="M76.4,32.5c-0.5-2.6,1-4.5,2.9-5c1.6-0.4,4.2-0.1,5.1,2.3"/>
<path class="st0" d="M84.8,30c-0.5-2.6,1-4.5,2.9-5c1.6-0.4,4.2-0.1,5.1,2.3"/>
<path class="st0" d="M93.3,27.4c-0.5-2.6,1-4.5,2.9-5c1.6-0.4,4.2-0.1,5.1,2.3"/>
<path class="st0" d="M101.9,24.8c-0.5-2.6,1-4.5,2.9-5c1.6-0.4,4.2-0.1,5.1,2.3"/>
<path class="st0" d="M32,32.7"/>
</svg>
